<?xml version="1.0" encoding="UTF-8"?><svg xmlns="http://www.w3.org/2000/svg" viewBox="0 0 429.24 428.23"><defs><style>.cls-1{fill:lime;}.cls-2{fill:blue;}.cls-3{fill:currentColor;}.cls-4{fill:red;}.cls-5{mix-blend-mode:screen;}.cls-6{isolation:isolate;}</style></defs><g class="cls-6"><g id="Layer_1"><g id="GG"><path class="cls-2" d="M254.57,257.67c-46.33,0-84.01-37.69-84.01-84.01s37.69-84.01,84.01-84.01c18.97,0,36.88,6.17,51.78,17.85l-11.95,15.25c-11.46-8.98-25.23-13.73-39.83-13.73-35.64,0-64.64,29-64.64,64.64s29,64.64,64.64,64.64c.52,0,1.04,0,1.56-.02l.51-.02c.33-.01,.69-.02,1.04-.04l.58-.03c.33-.02,.65-.04,.97-.06,.19-.01,.38-.03,.58-.04,.34-.03,.67-.06,1-.09l.54-.05c.4-.04,.79-.09,1.19-.14l.33-.04c.48-.06,.98-.13,1.47-.21l.43-.07c.37-.06,.71-.11,1.06-.17l.56-.1c.3-.06,.61-.11,.92-.18,.19-.04,.39-.08,.58-.12,.31-.06,.6-.13,.9-.2,.21-.05,.39-.09,.58-.13,.33-.08,.66-.16,.98-.24l.46-.11c.47-.12,.94-.25,1.41-.38l.41-.12c.33-.1,.67-.19,1-.3l.57-.18c.28-.09,.56-.18,.83-.27,.2-.07,.4-.13,.6-.2,.28-.1,.54-.19,.81-.29,.19-.07,.38-.14,.58-.21,.28-.1,.56-.21,.83-.32l.55-.21c.34-.14,.69-.28,1.04-.42,.22-.09,.42-.18,.63-.27,.31-.14,.64-.28,.97-.42,.12-.06,.25-.12,.39-.18l.18-.08c.26-.12,.5-.23,.75-.35,.21-.1,.4-.2,.6-.29,.25-.12,.48-.24,.71-.35,.2-.1,.41-.21,.62-.31,.22-.12,.46-.24,.7-.37l.18-.1c.13-.07,.27-.14,.4-.22,.23-.13,.46-.26,.7-.39l.6-.34c.38-.22,.76-.44,1.13-.67,.13-.08,.24-.15,.36-.22l.32-.2c.18-.11,.37-.23,.55-.35,.18-.11,.37-.24,.56-.36,.23-.15,.43-.28,.64-.42,.21-.14,.4-.27,.6-.4,.21-.14,.4-.28,.6-.42l.05-.04c.18-.12,.35-.25,.53-.37,.18-.13,.36-.26,.54-.39l.3-.22c.1-.08,.21-.15,.31-.23,.36-.27,.71-.54,1.07-.82,13.24-10.37,21.73-25.12,24.12-41.41l-63.92,.19-.06-19.38,83.98-.25,.06,9.66c0,.09,0,.19,0,.29,0,26-11.75,50.11-32.23,66.16-.46,.36-.92,.71-1.38,1.06-.17,.13-.34,.25-.51,.38l-.28,.2c-.24,.17-.47,.35-.71,.52-.24,.17-.48,.34-.71,.5l-.05,.04c-.26,.18-.52,.36-.78,.54-.25,.17-.51,.35-.77,.52-.25,.17-.52,.34-.79,.52-.28,.18-.52,.34-.77,.5-.25,.16-.5,.31-.74,.47l-.29,.18c-.19,.12-.38,.23-.56,.35-.48,.29-.97,.58-1.47,.87-.17,.1-.35,.2-.52,.3l-.24,.13c-.3,.17-.61,.34-.91,.51-.2,.11-.4,.21-.59,.32l-.18,.09c-.32,.17-.61,.32-.9,.47-.28,.14-.54,.28-.8,.41-.31,.16-.62,.31-.92,.46-.24,.12-.51,.25-.78,.38-.32,.15-.65,.3-.97,.45l-.14,.06c-.2,.09-.4,.18-.6,.27-.43,.19-.85,.38-1.27,.56-.27,.12-.53,.23-.79,.34-.44,.19-.9,.37-1.35,.55-.18,.07-.36,.14-.54,.21l-.18,.07c-.36,.14-.71,.27-1.06,.4-.26,.1-.52,.19-.78,.28-.35,.13-.7,.25-1.04,.37-.26,.09-.52,.18-.78,.27-.36,.12-.72,.24-1.09,.35l-.16,.05c-.19,.06-.38,.12-.58,.18-.44,.13-.87,.26-1.31,.39l-.14,.04c-.13,.04-.26,.08-.4,.12-.61,.17-1.21,.34-1.83,.49-.14,.04-.28,.07-.43,.11l-.16,.04c-.44,.11-.87,.22-1.29,.32-.25,.06-.5,.11-.76,.17-.37,.08-.76,.17-1.16,.25-.24,.05-.5,.1-.75,.15-.4,.08-.8,.16-1.2,.23l-.12,.02c-.21,.04-.41,.08-.62,.11-.46,.08-.91,.15-1.36,.23l-.12,.02c-.15,.02-.3,.05-.45,.07-.64,.1-1.28,.19-1.93,.27-.12,.01-.23,.03-.34,.04h-.07c-.52,.07-1.04,.13-1.55,.18-.19,.02-.38,.04-.57,.06h-.14c-.42,.05-.85,.09-1.28,.13-.25,.02-.5,.04-.75,.06-.43,.03-.86,.06-1.28,.08h-.11c-.21,.02-.43,.03-.64,.04-.45,.02-.9,.04-1.35,.05l-.64,.02c-.68,.02-1.35,.03-2.02,.03Z"/><g class="cls-5"><path class="cls-1" d="M222.6,289.65c-46.33,0-84.01-37.69-84.01-84.01s37.69-84.01,84.01-84.01c18.97,0,36.88,6.17,51.78,17.85l-11.95,15.25c-11.46-8.98-25.23-13.73-39.83-13.73-35.64,0-64.64,29-64.64,64.64s29,64.64,64.64,64.64c.52,0,1.04,0,1.56-.02l.51-.02c.33-.01,.69-.02,1.04-.04l.58-.03c.33-.02,.65-.04,.97-.06,.19-.01,.38-.03,.58-.04,.34-.03,.67-.06,1-.09l.54-.05c.4-.04,.79-.09,1.19-.14l.33-.04c.48-.06,.98-.13,1.47-.21l.43-.07c.37-.06,.71-.11,1.06-.17l.56-.1c.3-.06,.61-.11,.92-.18,.18-.04,.38-.08,.58-.12,.31-.06,.6-.13,.9-.2,.21-.05,.39-.09,.57-.13,.33-.08,.66-.16,.98-.24l.46-.11c.47-.12,.94-.25,1.41-.38l.41-.12c.33-.1,.67-.19,1-.3l.57-.18c.28-.09,.56-.18,.83-.27,.2-.07,.4-.13,.6-.2,.28-.1,.54-.19,.81-.29,.19-.07,.38-.14,.58-.21,.28-.1,.56-.21,.83-.32l.55-.21c.34-.14,.69-.28,1.04-.42,.22-.09,.42-.18,.63-.27,.31-.14,.64-.28,.97-.42,.12-.06,.25-.12,.39-.18l.18-.08c.26-.12,.5-.23,.75-.35,.21-.1,.4-.2,.6-.29,.25-.12,.48-.24,.71-.35,.2-.1,.41-.21,.62-.31,.22-.12,.46-.24,.7-.37l.18-.1c.13-.07,.27-.14,.4-.22,.23-.13,.46-.26,.7-.39l.6-.34c.38-.22,.76-.44,1.13-.67,.13-.08,.24-.15,.36-.22l.32-.2c.18-.11,.37-.23,.55-.35,.18-.11,.37-.24,.56-.36,.23-.15,.43-.28,.64-.42,.21-.14,.4-.27,.6-.4,.21-.14,.4-.28,.6-.42l.05-.04c.18-.12,.35-.25,.53-.37,.18-.13,.36-.26,.54-.39l.3-.22c.1-.08,.21-.15,.31-.23,.36-.27,.71-.54,1.07-.82,13.24-10.37,21.73-25.12,24.12-41.41l-63.92,.19-.06-19.38,83.98-.25,.06,9.66c0,.09,0,.19,0,.29,0,26-11.75,50.11-32.23,66.16-.46,.36-.92,.71-1.38,1.06-.17,.13-.34,.25-.51,.38l-.28,.2c-.24,.17-.47,.35-.71,.52-.24,.17-.48,.34-.71,.5l-.05,.04c-.26,.18-.52,.36-.78,.54-.25,.17-.51,.35-.77,.52-.25,.17-.52,.34-.79,.52-.28,.18-.52,.34-.77,.5-.25,.16-.5,.31-.74,.47l-.29,.18c-.19,.12-.38,.23-.56,.35-.48,.29-.97,.58-1.47,.87-.17,.1-.35,.2-.52,.3l-.24,.13c-.3,.17-.61,.34-.91,.51-.2,.11-.4,.21-.59,.32l-.18,.09c-.32,.17-.61,.32-.9,.47-.28,.14-.54,.28-.8,.41-.31,.16-.62,.31-.92,.46-.24,.12-.51,.25-.78,.38-.32,.15-.65,.3-.97,.45l-.14,.06c-.2,.09-.4,.18-.6,.27-.43,.19-.85,.38-1.27,.56-.27,.12-.53,.23-.79,.34-.44,.19-.9,.37-1.35,.55-.18,.07-.36,.14-.54,.21l-.18,.07c-.36,.14-.71,.27-1.06,.4-.26,.1-.52,.19-.78,.28-.35,.13-.7,.25-1.04,.37-.26,.09-.52,.18-.78,.27-.36,.12-.72,.24-1.09,.35l-.16,.05c-.19,.06-.38,.12-.58,.18-.44,.13-.87,.26-1.31,.39l-.14,.04c-.13,.04-.26,.08-.4,.12-.61,.17-1.21,.34-1.83,.49-.14,.04-.28,.07-.43,.11l-.16,.04c-.44,.11-.87,.22-1.29,.32-.24,.06-.49,.11-.74,.17-.38,.09-.78,.17-1.17,.26-.24,.05-.49,.1-.75,.15-.41,.08-.81,.16-1.2,.23l-.12,.02c-.21,.04-.41,.08-.62,.11-.46,.08-.91,.15-1.36,.23l-.12,.02c-.15,.02-.3,.05-.44,.07-.64,.1-1.29,.19-1.93,.27-.12,.02-.23,.03-.35,.04h-.07c-.52,.07-1.03,.13-1.55,.18-.19,.02-.38,.04-.57,.06h-.14c-.42,.05-.85,.09-1.28,.13-.25,.02-.5,.04-.75,.06-.43,.03-.86,.06-1.28,.08h-.1c-.21,.02-.43,.03-.64,.04-.45,.02-.9,.04-1.35,.05l-.64,.02c-.68,.02-1.35,.03-2.02,.03Z"/></g><g id="R" class="cls-5"><rect class="cls-4" x="160.09" y="27.61" width="20" height="461.08" transform="translate(-132.72 195.88) rotate(-45)"/></g></g><g><path class="cls-3" d="M55.52,240.93l-1.46,.36-2.73-11.21,16.69-4.06,2.68,11-1.46,.35-2.28-9.35-6.02,1.46,1.98,8.16-1.39,.34-1.99-8.16-6.37,1.55,2.33,9.57Z"/><path class="cls-3" d="M76.18,261.62c.16-.33,.28-.68,.36-1.06,.08-.38,.12-.79,.11-1.22s-.05-.88-.13-1.34-.22-.93-.42-1.41c-.57-1.39-1.25-2.3-2.05-2.73-.79-.43-1.65-.46-2.55-.09-.63,.26-1.05,.61-1.29,1.06-.23,.45-.32,1.05-.28,1.8s.16,1.68,.33,2.79c.23,1.23,.34,2.33,.35,3.28,0,.96-.17,1.77-.55,2.45-.37,.68-1.04,1.21-1.99,1.6-.73,.3-1.42,.42-2.07,.35-.65-.06-1.26-.28-1.83-.64-.57-.36-1.08-.86-1.54-1.49-.46-.63-.86-1.36-1.2-2.2-.34-.82-.57-1.64-.71-2.47-.14-.82-.18-1.64-.12-2.45,.06-.81,.23-1.61,.52-2.41l1.6,.26c-.18,.41-.32,.86-.42,1.36-.1,.5-.15,1.04-.16,1.61,0,.57,.04,1.16,.16,1.76s.3,1.21,.54,1.8c.52,1.27,1.16,2.16,1.91,2.68s1.58,.59,2.49,.22c.66-.27,1.11-.66,1.36-1.18,.25-.52,.35-1.19,.31-2.01-.04-.82-.16-1.8-.34-2.94-.2-1.21-.3-2.26-.3-3.15,0-.89,.18-1.63,.54-2.22,.36-.59,.96-1.06,1.81-1.41,.98-.4,1.91-.5,2.79-.29s1.66,.66,2.36,1.37,1.27,1.61,1.73,2.72c.29,.7,.48,1.38,.59,2.05,.11,.66,.13,1.31,.07,1.93-.06,.62-.2,1.24-.42,1.86l-1.57-.25Z"/><path class="cls-3" d="M91.48,286.24l-3.16-5.24-13.43,8.08-.87-1.45,13.43-8.09-3.16-5.24,1.28-.77,7.19,11.94-1.29,.77Z"/><path class="cls-3" d="M86.39,305.9l1.88-1.45,.87,1.13-1.88,1.45-.87-1.13Z"/><path class="cls-3" d="M113.16,334.46c.35-.43,.75-.83,1.18-1.2,.43-.37,.93-.69,1.49-.94,.56-.25,1.22-.41,1.95-.47s1.59,.01,2.55,.21c.52,.11,1.04,.23,1.58,.36,.54,.14,1.07,.23,1.59,.29,.52,.06,1,.03,1.44-.08,.44-.11,.82-.37,1.14-.76,.26-.32,.42-.7,.5-1.16s0-.93-.21-1.42-.59-.96-1.14-1.41c-.4-.33-.81-.57-1.22-.72s-.82-.25-1.21-.29c-.39-.04-.74-.04-1.05-.02-.31,.02-.57,.05-.77,.07l-.08-1.54c.12-.02,.37-.04,.75-.06s.82,.01,1.34,.08c.52,.07,1.07,.22,1.66,.46,.59,.24,1.17,.58,1.73,1.04,.76,.62,1.3,1.29,1.62,2.01,.32,.72,.44,1.42,.35,2.11-.09,.69-.35,1.3-.78,1.83-.42,.52-.9,.87-1.42,1.07-.52,.19-1.07,.29-1.63,.28-.57,0-1.11-.07-1.64-.17-.53-.11-1-.21-1.41-.32-.81-.2-1.54-.33-2.16-.38-.63-.05-1.18-.03-1.65,.06s-.88,.22-1.24,.38-.68,.37-.96,.62l6.69,5.5-.95,1.16-8.02-6.59Z"/><path class="cls-3" d="M148.85,351.07c-.72,1.2-1.59,2.13-2.6,2.79-1.01,.66-2.07,1.02-3.16,1.09-1.1,.06-2.16-.21-3.16-.82-1-.6-1.72-1.4-2.19-2.4-.46-1-.64-2.1-.54-3.31s.52-2.41,1.24-3.61c.72-1.2,1.59-2.13,2.61-2.78,1.02-.66,2.08-1.02,3.18-1.09s2.15,.2,3.15,.79c1.01,.61,1.74,1.41,2.2,2.42,.46,1.01,.63,2.11,.52,3.32-.11,1.2-.53,2.4-1.25,3.6Zm-1.43-.86c.58-.96,.93-1.91,1.05-2.83,.12-.92,.02-1.76-.29-2.52-.32-.75-.85-1.36-1.6-1.81-.75-.45-1.53-.64-2.35-.57-.82,.07-1.61,.37-2.37,.92-.76,.54-1.43,1.29-2.01,2.26-.58,.96-.93,1.91-1.04,2.83-.12,.93-.01,1.76,.31,2.51s.86,1.35,1.6,1.79c.75,.45,1.53,.64,2.34,.56s1.6-.38,2.35-.91c.75-.53,1.42-1.28,2-2.25Z"/><path class="cls-3" d="M174.95,363.03c-.52,1.3-1.23,2.35-2.13,3.16-.89,.81-1.88,1.33-2.96,1.57-1.08,.23-2.16,.13-3.25-.31-1.08-.44-1.92-1.11-2.53-2.03-.61-.92-.96-1.98-1.05-3.19-.08-1.21,.14-2.46,.66-3.76,.53-1.29,1.24-2.35,2.14-3.16s1.89-1.33,2.97-1.57c1.08-.24,2.16-.14,3.24,.29,1.09,.44,1.94,1.12,2.55,2.05,.61,.92,.95,1.99,1.03,3.19,.08,1.21-.15,2.46-.67,3.75Zm-1.55-.63c.42-1.04,.62-2.03,.6-2.96-.02-.93-.25-1.74-.68-2.44s-1.05-1.21-1.86-1.53c-.81-.33-1.61-.39-2.41-.19-.8,.2-1.54,.62-2.2,1.27-.66,.65-1.21,1.5-1.63,2.54-.42,1.04-.62,2.03-.58,2.96,.03,.93,.26,1.75,.7,2.43,.43,.69,1.06,1.2,1.86,1.52,.81,.33,1.61,.39,2.4,.19,.79-.2,1.52-.62,2.18-1.27,.66-.65,1.2-1.49,1.62-2.53Z"/><path class="cls-3" d="M193.04,379.42c-1.18-.28-2.17-.83-2.99-1.64-.82-.82-1.35-1.76-1.59-2.83l1.25-.55c.26,.87,.71,1.63,1.36,2.29,.65,.65,1.43,1.08,2.34,1.3,.79,.19,1.53,.18,2.23-.02,.7-.2,1.31-.56,1.82-1.08s.87-1.19,1.06-1.99c.18-.77,.17-1.49-.04-2.16s-.58-1.24-1.11-1.72c-.53-.47-1.16-.8-1.92-.98-.72-.17-1.45-.18-2.19-.01s-1.38,.5-1.93,1.02l-1.48-.35,4.1-8.97,8.07,1.92-.35,1.48-6.87-1.63-2.58,5.73c.51-.34,1.09-.56,1.75-.67s1.33-.07,2.02,.09c1.02,.24,1.89,.69,2.6,1.34,.72,.65,1.22,1.43,1.52,2.35,.3,.92,.32,1.89,.08,2.93-.26,1.1-.75,2-1.48,2.71-.72,.71-1.58,1.19-2.57,1.44-.99,.25-2.02,.25-3.08,0Z"/></g><g><path class="cls-3" d="M89.6,73.31l-5.63,8.12,20.73,14.39-1.1,1.59-20.73-14.39-5.63,8.12-1.44-1,12.37-17.83,1.44,1Z"/><path class="cls-3" d="M119.29,40.82l18.02,20.08-1.44,1.29-8.63-9.62-12.67,11.37,8.63,9.62-1.44,1.29-18.02-20.08,1.44-1.29,8.22,9.16,12.67-11.37-8.22-9.17,1.44-1.29Z"/><path class="cls-3" d="M168.95,39.47l.83,1.54-15.82,8.52-12.8-23.75,15.52-8.36,.83,1.54-13.82,7.44,5.03,9.33,12.08-6.51,.79,1.47-12.08,6.51,5.32,9.87,14.12-7.61Z"/><path class="cls-3" d="M221.53,27.28c-1.81,.2-3.53-.01-5.15-.62-1.62-.61-3.07-1.51-4.34-2.68-1.27-1.17-2.31-2.54-3.1-4.1-.79-1.56-1.28-3.18-1.47-4.87-.19-1.76-.07-3.49,.35-5.18,.43-1.69,1.13-3.23,2.1-4.62,.97-1.39,2.17-2.54,3.6-3.45,1.43-.91,3.04-1.46,4.83-1.65,2.67-.29,4.89,.02,6.66,.94s3.17,2.18,4.22,3.8l-1.48,1.12c-1.1-1.66-2.44-2.81-4.03-3.44-1.58-.63-3.32-.84-5.21-.64-1.59,.17-2.99,.66-4.2,1.47-1.21,.81-2.21,1.82-3,3.04-.78,1.22-1.34,2.56-1.67,4.02-.32,1.46-.41,2.94-.24,4.42,.17,1.59,.61,3.05,1.32,4.4,.71,1.35,1.61,2.53,2.72,3.53,1.1,1,2.34,1.75,3.72,2.23,1.38,.49,2.81,.65,4.3,.49,1.74-.19,3.33-.79,4.77-1.8s2.77-2.5,3.99-4.47l.23,2.15c-2.32,3.54-5.29,5.51-8.91,5.9Zm7.76-12.66l-6.08,.66-.17-1.55,7.74-.84,1.42,13.03-1.66,.18-1.25-11.49Z"/><path class="cls-3" d="M261.92,28.06c-1.86-.27-3.49-.89-4.91-1.88-1.42-.99-2.59-2.2-3.51-3.63-.92-1.44-1.56-3.01-1.93-4.71-.37-1.7-.43-3.41-.19-5.11,.26-1.78,.81-3.43,1.67-4.96,.86-1.53,1.95-2.84,3.27-3.95,1.32-1.1,2.8-1.91,4.42-2.44,1.62-.52,3.32-.66,5.11-.4,1.88,.27,3.52,.9,4.93,1.9,1.4,.99,2.57,2.22,3.48,3.69,.92,1.46,1.56,3.04,1.93,4.73,.37,1.69,.44,3.36,.2,5.02-.26,1.81-.82,3.47-1.68,5-.86,1.53-1.95,2.84-3.27,3.94-1.32,1.1-2.79,1.91-4.42,2.42-1.62,.51-3.32,.64-5.1,.38Zm-8.62-15.06c-.22,1.53-.17,3.04,.16,4.51,.33,1.48,.88,2.84,1.66,4.08,.78,1.24,1.77,2.28,2.97,3.11,1.2,.84,2.57,1.37,4.13,1.59,1.58,.23,3.07,.1,4.47-.39,1.4-.49,2.65-1.23,3.74-2.23,1.09-.99,1.98-2.15,2.67-3.47,.69-1.32,1.14-2.71,1.35-4.16,.22-1.53,.17-3.03-.14-4.51-.31-1.48-.87-2.84-1.66-4.08-.79-1.24-1.79-2.28-2.99-3.12-1.2-.84-2.55-1.36-4.05-1.58-1.6-.23-3.11-.1-4.51,.39-1.4,.49-2.64,1.23-3.72,2.23-1.08,1-1.97,2.15-2.69,3.47-.71,1.32-1.18,2.7-1.38,4.16Z"/><path class="cls-3" d="M292.2,34.95l10.18-24.99,10.38,4.23c1.08,.44,1.97,1.06,2.67,1.87,.7,.8,1.22,1.71,1.56,2.71,.34,1,.51,2.04,.5,3.1,0,1.06-.21,2.08-.6,3.04-.51,1.24-1.23,2.3-2.16,3.18-.93,.88-1.99,1.5-3.16,1.87-1.18,.37-2.38,.4-3.62,.08l2.27,12.25-2.08-.85-2.21-11.9-8.1-3.3-3.84,9.43-1.79-.73Zm6.31-10.35l8.76,3.57c1.08,.44,2.14,.53,3.17,.27,1.04-.26,1.96-.77,2.78-1.54,.82-.76,1.44-1.67,1.87-2.73,.44-1.08,.6-2.18,.47-3.32-.13-1.13-.49-2.16-1.09-3.07-.6-.91-1.41-1.58-2.45-2l-8.52-3.47-5,12.28Z"/><path class="cls-3" d="M345.89,65.82l13.98-18.53-19.4,8.11-1.03-.78,2.48-20.89-13.98,18.54-1.55-1.17,16.25-21.54,1.55,1.17-2.65,22.18,20.61-8.64,1.55,1.17-16.25,21.54-1.55-1.17Z"/><path class="cls-3" d="M387.73,71.19l1.04,1.31-14.12,25.67-1.27-1.61,4.7-8.4-8.08-10.23-9.27,2.61-1.29-1.64,28.29-7.71Zm-8.8,15.46l7.47-13.35-14.73,4.15,7.26,9.2Z"/><path class="cls-3" d="M405.49,105.05l-21.34,9.53-.79-1.77,24.63-11,.65,1.46-14.02,26.86,21.69-9.68,.79,1.77-24.64,11-.77-1.74,13.79-26.43Z"/><path class="cls-3" d="M401.89,187.59c-.03-1.82,.33-3.52,1.09-5.07,.76-1.56,1.78-2.92,3.07-4.08s2.74-2.07,4.36-2.72c1.62-.65,3.28-.99,4.98-1.02,1.77-.03,3.48,.24,5.13,.82,1.64,.58,3.11,1.42,4.41,2.51,1.3,1.09,2.33,2.39,3.11,3.9,.77,1.51,1.17,3.16,1.21,4.96,.05,2.68-.47,4.87-1.54,6.54-1.07,1.68-2.46,2.96-4.17,3.85l-.98-1.58c1.76-.94,3.02-2.17,3.79-3.69,.77-1.52,1.14-3.23,1.11-5.13-.03-1.6-.39-3.04-1.08-4.31-.69-1.28-1.61-2.37-2.75-3.26-1.14-.89-2.43-1.57-3.86-2.03s-2.89-.67-4.38-.65c-1.59,.03-3.1,.33-4.51,.91-1.41,.58-2.66,1.38-3.76,2.38-1.1,1.01-1.95,2.17-2.56,3.5-.61,1.33-.9,2.74-.88,4.23,.03,1.75,.48,3.39,1.36,4.92,.88,1.53,2.24,2.99,4.08,4.38l-2.17,.04c-3.31-2.63-5-5.77-5.06-9.42Zm11.89,8.88l-.1-6.12,1.56-.03,.13,7.79-13.11,.22-.03-1.67,11.55-.2Z"/><path class="cls-3" d="M399.96,217.53l26.31,5.98-2.48,10.93c-.26,1.14-.73,2.12-1.41,2.93-.68,.82-1.49,1.48-2.42,1.98-.93,.5-1.92,.83-2.98,1-1.05,.16-2.08,.13-3.09-.1-1.31-.3-2.47-.83-3.49-1.61-1.02-.78-1.8-1.72-2.36-2.82-.56-1.1-.78-2.29-.67-3.56l-11.72,4.23,.5-2.19,11.38-4.12,1.94-8.52-9.93-2.26,.43-1.89Zm11.24,4.54l-2.1,9.23c-.26,1.14-.17,2.2,.25,3.18,.43,.98,1.08,1.81,1.97,2.49,.88,.68,1.88,1.15,2.99,1.4,1.14,.26,2.25,.23,3.35-.08,1.1-.31,2.05-.83,2.85-1.57,.8-.74,1.33-1.65,1.58-2.74l2.04-8.97-12.93-2.94Z"/><path class="cls-3" d="M384.45,263.25c.84-1.67,1.96-3.03,3.35-4.06,1.39-1.03,2.91-1.75,4.56-2.17,1.66-.41,3.35-.52,5.08-.33,1.73,.19,3.37,.68,4.91,1.45,1.61,.81,3,1.87,4.17,3.17,1.17,1.3,2.07,2.75,2.69,4.36s.92,3.26,.9,4.97c-.02,1.7-.44,3.36-1.25,4.97-.86,1.7-1.98,3.05-3.37,4.07-1.39,1.01-2.93,1.72-4.6,2.12-1.68,.4-3.38,.51-5.1,.32-1.72-.19-3.33-.66-4.82-1.41-1.63-.82-3.03-1.88-4.2-3.19-1.17-1.3-2.07-2.76-2.7-4.36-.62-1.61-.92-3.26-.88-4.96s.46-3.35,1.27-4.96Zm17.02-3.37c-1.38-.7-2.82-1.13-4.33-1.29-1.51-.17-2.97-.07-4.39,.27-1.42,.35-2.72,.95-3.9,1.82-1.18,.87-2.12,2-2.83,3.4-.72,1.43-1.07,2.88-1.05,4.36s.32,2.9,.92,4.25c.6,1.35,1.41,2.56,2.44,3.64,1.03,1.07,2.2,1.94,3.52,2.6,1.38,.7,2.82,1.13,4.32,1.31,1.5,.17,2.96,.08,4.39-.27,1.43-.36,2.73-.97,3.91-1.84,1.18-.87,2.11-1.98,2.79-3.34,.73-1.45,1.09-2.91,1.07-4.4-.02-1.49-.33-2.9-.93-4.24-.6-1.34-1.41-2.56-2.43-3.66-1.02-1.1-2.19-1.98-3.5-2.64Z"/><path class="cls-3" d="M361.1,297.71c1.42-1.61,2.9-2.71,4.43-3.29,1.53-.58,3.06-.76,4.61-.54,1.55,.22,3.06,.72,4.52,1.51s2.84,1.74,4.11,2.87l10.17,8.98-1.28,1.45-10.17-8.98c-1.1-.97-2.29-1.81-3.55-2.53-1.27-.71-2.55-1.18-3.86-1.4-1.31-.22-2.6-.1-3.89,.37-1.29,.46-2.53,1.37-3.72,2.72-1.21,1.37-1.95,2.73-2.24,4.08-.28,1.35-.23,2.67,.15,3.93,.38,1.27,1.01,2.48,1.87,3.63s1.83,2.2,2.92,3.16l10.17,8.98-1.28,1.45-10.17-8.98c-1.35-1.19-2.5-2.47-3.47-3.85-.96-1.38-1.63-2.82-1.99-4.32-.36-1.5-.35-3.03,.04-4.58,.39-1.55,1.27-3.1,2.65-4.66Z"/><path class="cls-3" d="M338.74,319.23l15.43,22.13-9.1,6.35c-.93,.65-1.93,1.05-2.98,1.2s-2.1,.1-3.14-.15c-1.04-.25-2-.67-2.89-1.25-.89-.59-1.63-1.3-2.22-2.16-.83-1.19-1.34-2.49-1.54-3.91-.2-1.42-.07-2.78,.39-4.09,.46-1.31,1.33-2.41,2.59-3.29l7.7-5.37-5.82-8.36,1.59-1.11Zm5.26,10.93l-7.64,5.32c-.98,.68-1.64,1.53-1.98,2.54-.35,1.01-.41,2.06-.21,3.16,.21,1.09,.63,2.11,1.29,3.04,.68,.98,1.53,1.72,2.55,2.23,1.02,.51,2.07,.76,3.16,.74,1.08-.02,2.08-.34,2.97-.96l7.45-5.19-7.58-10.88Z"/></g></g></g></svg>