<?xml version="1.0" encoding="UTF-8"?><svg id="Layer_1" xmlns="http://www.w3.org/2000/svg" viewBox="0 0 336 336"><g id="Expanded"><path d="m156.05,239.17c.47,0,.94,0,1.43-.02h.45c.32-.02.64-.04.95-.05l.53-.03c.3-.02.6-.04.93-.06l.5-.04c.3-.02.61-.05.9-.08l.5-.05c.36-.04.73-.08,1.14-.13l.24-.03c.46-.06.91-.12,1.36-.19l.4-.06c.32-.05.64-.1.96-.16l.52-.1c.28-.05.56-.1.85-.16l.53-.11c.28-.06.56-.12.82-.18.18-.04.35-.08.53-.12.3-.07.6-.14.91-.22l.42-.1c.43-.11.86-.23,1.29-.35l.38-.11c.31-.09.61-.18.92-.27l.52-.16c.26-.08.51-.16.77-.25l.55-.19c.24-.08.49-.17.73-.26.19-.07.37-.13.55-.2.25-.09.49-.19.75-.28l.51-.2c.32-.13.64-.26.96-.39l.56-.24c.3-.13.6-.26.9-.39l.52-.24c.23-.11.46-.21.69-.32.18-.09.36-.17.55-.26.22-.11.43-.21.65-.32.19-.09.37-.19.57-.29l1.17-.62c.22-.12.43-.24.65-.36l.54-.3c.35-.2.7-.41,1.04-.61.13-.08.27-.16.4-.25l1.82-1.17c.18-.12.37-.25.54-.37l1.09-.76c.17-.12.34-.24.5-.37l.56-.41c.33-.24.65-.49.97-.75,6.22-4.87,11.29-10.8,15.05-17.43l.3-.17c.35-.2.7-.41,1.04-.61l2.22-1.41c.18-.12.37-.25.54-.37l.59-.41c.17-.12.33-.23.5-.36.17-.12.34-.24.51-.37l.55-.41c.33-.24.65-.49.97-.75,14.44-11.32,22.72-28.31,22.72-46.64l-.05-7.62-59.89.18.04,14.89,44.41-.13c-1.03,6.24-3.37,12.11-6.83,17.28.03-.77.05-1.55.05-2.32l-.05-7.62-59.89.18.04,14.89,44.41-.13c-.62,3.78-1.74,7.42-3.28,10.86h-.03c-.22.11-.45.21-.66.3l-.43.18c-.24.1-.47.2-.7.29l-1.35.51c-.18.07-.37.13-.56.2l-.41.14c-.19.06-.38.12-.57.19l-.39.12c-.23.07-.46.14-.69.21l-.27.08c-.32.09-.64.18-.96.26l-.32.08c-.22.06-.45.11-.67.16l-.4.09c-.2.05-.41.09-.62.13l-.4.08c-.21.04-.42.08-.63.12l-.39.07c-.24.04-.47.08-.73.12l-.29.05c-.34.05-.68.1-1,.14l-.24.03c-.27.03-.55.07-.81.09l-.37.04c-.23.02-.46.04-.69.06l-.4.03c-.22.02-.44.03-.67.04l-.4.02c-.24.01-.48.02-.71.03h-.35c-.36.02-.71.03-1.07.03-24.44,0-44.33-19.89-44.33-44.33,0-6.47,1.4-12.61,3.9-18.15,5.55-2.5,11.69-3.9,18.15-3.9,10.01,0,19.46,3.26,27.31,9.41l.55.43,9.19-11.72-.55-.43c-10.51-8.23-23.13-12.58-36.5-12.58-.76,0-1.52.03-2.27.06,7.03-4.69,15.47-7.44,24.55-7.44,10.01,0,19.46,3.26,27.31,9.41l.55.43,9.19-11.72-.55-.43c-10.51-8.23-23.13-12.58-36.5-12.58-22.04,0-41.29,12.11-51.48,30.01-17.9,10.2-30.01,29.45-30.01,51.48,0,1.07.03,2.14.09,3.19L10.84,97.06,0,107.9l228.1,228.1,10.84-10.84-86.08-86.08c1.06.06,2.12.09,3.19.09Zm35.64-13.68c-.31.25-.63.49-.95.73l-.54.4c-.16.12-.33.24-.49.36l-.49.35.4.57-.46-.53-2.83,1.86c-.13.08-.25.16-.39.24-.33.2-.67.4-1.01.6l-.52.3c-.21.12-.42.23-.63.35l-1.7.89c-.21.11-.42.21-.66.33-.16.08-.33.16-.51.25-.22.1-.44.21-.67.31l-.5.23c-.29.13-.59.26-.88.38l-.55.23c-.31.13-.62.26-.93.38l-.5.19c-.25.1-.49.19-.73.28-.17.07-.35.13-.54.2-.24.09-.48.17-.72.25l-.54.18c-.25.08-.5.16-.75.24l-.5.16c-.3.09-.6.18-.9.27l-.37.11c-.42.12-.84.23-1.26.34l-.4.1c-.31.08-.6.15-.89.22-.17.04-.34.08-.51.12-.26.06-.54.12-.81.18l-.51.1c-.28.06-.55.11-.83.16l-.51.09c-.31.06-.62.11-.94.16l-.39.06c-.44.07-.88.13-1.33.19l-.28.03c-.36.04-.71.09-1.06.12l-.49.05c-.29.03-.58.05-.88.08l-.52.04c-.3.02-.59.04-.88.06l-.51.03c-.31.01-.62.03-.93.04h-.44c-.47.02-.93.03-1.39.03-1.59,0-3.15-.08-4.71-.21l-17.9-17.9c6.67,3.81,14.39,6.01,22.61,6.01.37,0,.74,0,1.11-.01h.35c.24-.02.49-.03.74-.04l.41-.02c.23-.01.46-.03.69-.04l.41-.03c.24-.02.47-.04.71-.06l.38-.04c.28-.03.56-.06.84-.1l.24-.03c.34-.04.69-.09,1.05-.15l.3-.05c.26-.04.5-.08.75-.12l.39-.07c.22-.04.43-.08.66-.13l.4-.08c.22-.05.43-.09.64-.14l.41-.09c.24-.06.47-.11.69-.17l.33-.08c.34-.09.66-.18,1-.27l.31-.09c.22-.07.45-.13.69-.2l.4-.13c.2-.06.4-.13.59-.19l.42-.14c.19-.07.38-.13.57-.2l.41-.15c.2-.07.39-.15.59-.22l.39-.15c.24-.1.49-.2.73-.3.15-.06.3-.13.44-.19.22-.1.46-.2.69-.3l1.35-.63c.18-.09.34-.17.51-.25l2.25-1.21c.27-.16.54-.31.8-.47l.87-.54,2.71-1.87c.26-.02.51-.04.76-.07l.5-.05c.36-.04.73-.08,1.13-.13l.25-.03c.46-.06.91-.12,1.36-.19l.4-.06c.32-.05.64-.1.96-.16l.52-.1c.28-.05.56-.1.84-.16l.53-.11c.28-.06.56-.12.81-.18.18-.04.36-.08.53-.12.3-.07.6-.14.91-.22l.42-.1c.43-.11.86-.23,1.29-.35l.38-.11c.31-.09.61-.18.92-.27l.52-.16c.26-.08.51-.16.77-.25l.55-.19c.24-.08.49-.17.77-.27.17-.06.35-.13.51-.19.22-.08.44-.16.66-.25l.6-.23c.32-.13.64-.26.95-.39l.56-.24c.3-.13.6-.26.9-.39l.52-.24c.23-.11.46-.21.69-.32l.55-.26c.22-.11.43-.21.65-.32.08-.04.16-.08.24-.12-3.53,5.68-8.08,10.77-13.52,15.04Zm-70.02-17.59c-6.21-7.63-9.95-17.36-9.95-27.95,0-9.07,2.74-17.51,7.44-24.55-.03.76-.06,1.51-.06,2.27,0,32.65,26.57,59.22,59.22,59.22.47,0,.94,0,1.43-.02h.45c.11-.02.21-.02.32-.03l-1.57,1.06c-.26.15-.51.31-.77.46l-2.19,1.18c-.16.08-.31.16-.49.24l-1.31.62c-.22.1-.45.2-.67.29l-.43.18c-.24.1-.47.2-.7.29l-.38.15c-.19.07-.38.14-.57.22l-.39.14c-.18.07-.37.13-.56.2l-.41.14c-.19.06-.38.13-.57.19l-.39.12c-.22.07-.44.13-.69.21l-.28.08c-.32.09-.64.18-.96.26l-.32.08c-.22.06-.45.11-.67.16l-.4.09c-.2.05-.4.09-.62.13l-.4.08c-.21.04-.42.08-.63.12l-.39.07c-.24.04-.47.08-.73.12l-.3.05c-.34.05-.68.1-1,.14l-.24.03c-.27.03-.55.07-.81.09l-.37.04c-.23.02-.46.04-.69.06l-.39.03c-.22.02-.45.03-.67.04l-.4.02c-.24.01-.48.02-.71.03h-.35c-.36.02-.71.03-1.07.03-10.59,0-20.31-3.73-27.95-9.95l-6.43-6.43Zm101.89-43.5l.12-.8-44.64.13-.04-12.11,57.11-.17.04,6.23c0,17.89-8.09,34.49-22.19,45.54-.31.25-.63.49-.95.73l-.54.4c-.16.12-.33.24-.49.36-.17.12-.33.23-.49.35l.4.57-.46-.53-2.53,1.65c3.42-6.74,5.53-14.13,6.17-21.84,4.45-5.99,7.39-12.99,8.49-20.51Zm-66.79,21.61l-.04-12.1,57.11-.17.04,6.23c0,1.49-.06,2.97-.17,4.44-2.3,3.03-5,5.8-8.07,8.2-.24.19-.49.38-.73.56l-3.68,2.49c-.26.15-.51.31-.77.46l-2.03,1.1c1.36-3.35,2.33-6.88,2.86-10.53l.12-.8-44.64.13Zm-24.17-28.32c0,25.21,20.51,45.72,45.72,45.72.37,0,.74,0,1.11-.01h.35c.24-.02.49-.03.74-.04l.41-.02c.23-.01.46-.03.69-.04l.41-.03c.24-.02.47-.04.71-.06l.38-.04c.28-.03.56-.06.84-.1l.24-.03c.34-.04.69-.09,1.05-.15l.3-.05c.26-.04.5-.08.75-.12l.39-.07c.21-.04.43-.08.65-.12l.41-.08c.22-.05.43-.09.69-.15l.36-.08c.23-.06.46-.11.69-.17l.33-.08c.34-.09.66-.18,1-.27l.28-.08c.23-.07.47-.14.71-.21l.4-.13c.2-.06.39-.13.59-.19l.42-.14c.19-.07.38-.13.57-.2l1.39-.52c.14-.05.27-.11.41-.17-2.9,5.71-7.04,10.78-12.23,14.84-.2.16-.41.32-.61.47l-.27.02c-.3.02-.59.04-.88.06l-.51.03c-.31.01-.62.03-.93.04h-.44c-.47.02-.93.03-1.39.03-31.89,0-57.83-25.94-57.83-57.83,0-1.49.07-2.96.19-4.41,4.05-5.35,9.28-9.75,15.3-12.82-2.17,5.32-3.38,11.14-3.38,17.24Zm23.45-35.56c12.83,0,24.94,4.1,35.09,11.86l-7.47,9.53c-8-6.08-17.53-9.28-27.62-9.28-6.1,0-11.91,1.21-17.24,3.38,3.07-6.02,7.47-11.26,12.82-15.3,1.46-.11,2.93-.19,4.41-.19Zm22.27-22.27c12.83,0,24.94,4.1,35.09,11.86l-7.47,9.53c-8-6.08-17.53-9.28-27.62-9.28s-19.59,3.35-27.2,8.99c-7.83.65-15.23,2.82-21.9,6.23,10.22-16.39,28.4-27.33,49.1-27.33Zm-80.1,80.1c0-20.7,10.94-38.88,27.33-49.1-3.41,6.67-5.58,14.07-6.23,21.9-5.65,7.61-9,17.02-9,27.2,0,8.22,2.19,15.93,6.01,22.61l-17.9-17.9c-.13-1.55-.21-3.12-.21-4.71ZM1.97,107.9l8.87-8.87,86.24,86.24c.9,10.04,4.31,19.36,9.6,27.34m130.28,112.55l-8.87,8.87-104.71-104.71c7.98,5.29,17.3,8.7,27.34,9.6l86.24,86.24Z"/><polygon points="43.86 202.48 44.83 202.24 43.45 196.56 47.64 195.54 49.22 202.06 50.24 201.81 48.37 194.15 36.75 196.97 38.65 204.78 39.66 204.54 38.04 197.87 42.48 196.79 43.86 202.48"/><path d="m54,215.44c.14.33.23.66.29.98s.09.63.09.94-.02.59-.08.85c-.05.27-.14.51-.25.74l1.09.17c.15-.43.25-.86.29-1.29.04-.43.02-.88-.05-1.34-.07-.46-.21-.94-.41-1.43-.31-.77-.72-1.4-1.2-1.89s-1.04-.81-1.65-.96-1.26-.08-1.94.21c-.59.24-1.01.57-1.26.98-.25.41-.37.93-.37,1.55,0,.62.07,1.35.21,2.19.13.8.21,1.48.24,2.05.03.57-.04,1.04-.22,1.4-.17.36-.49.64-.94.82-.63.26-1.21.21-1.73-.15s-.97-.99-1.33-1.87c-.17-.42-.3-.83-.38-1.26s-.12-.83-.11-1.23c0-.4.04-.77.11-1.12.07-.35.17-.67.29-.95l-1.11-.18c-.2.55-.32,1.11-.36,1.68-.04.56-.02,1.13.08,1.71.1.57.26,1.15.5,1.72.24.58.52,1.09.84,1.53.32.44.68.79,1.07,1.04.39.25.82.4,1.27.44.45.04.94-.04,1.44-.25.66-.27,1.13-.64,1.39-1.12.26-.47.39-1.04.38-1.7,0-.67-.09-1.43-.25-2.29-.12-.77-.2-1.42-.23-1.94s.03-.94.19-1.25c.16-.31.46-.56.9-.74.63-.26,1.23-.24,1.78.06.55.3,1.03.93,1.43,1.9Z"/><polygon points="59.7 227.79 61.9 231.44 52.55 237.07 53.15 238.08 62.51 232.45 64.71 236.1 65.6 235.56 60.6 227.25 59.7 227.79"/><rect x="61.3" y="249.19" width="1.65" height=".99" transform="translate(-139.46 89.79) rotate(-37.61)"/><path d="m89.02,264.43c-.39-.32-.79-.56-1.2-.73-.41-.16-.8-.27-1.16-.32-.36-.05-.67-.07-.93-.06s-.44.02-.52.04l.06,1.07c.14-.01.32-.03.54-.05.22-.02.46-.01.73.01.27.03.55.09.84.2s.57.28.85.5c.38.31.65.64.79.99s.2.67.15.99-.16.58-.34.8c-.22.27-.49.45-.8.53-.3.08-.64.1-1,.06-.37-.04-.73-.11-1.11-.2-.37-.09-.74-.18-1.1-.25-.67-.14-1.26-.19-1.78-.15s-.97.15-1.36.33c-.39.18-.74.4-1.04.66-.3.26-.57.54-.82.84l5.59,4.59.66-.81-4.66-3.83c.2-.17.42-.32.67-.43s.53-.2.86-.27.71-.08,1.15-.04c.44.03.94.12,1.51.26.29.07.61.15.98.22.37.07.75.11,1.14.12.39,0,.77-.06,1.14-.19.37-.14.7-.38.99-.74.3-.37.49-.79.55-1.27.06-.48-.02-.97-.24-1.47-.22-.5-.6-.97-1.13-1.4Z"/><path d="m103.65,274.75c-.69-.42-1.42-.6-2.19-.55s-1.51.3-2.22.76c-.71.46-1.31,1.11-1.82,1.94-.5.83-.79,1.67-.86,2.51s.05,1.61.37,2.31c.32.7.83,1.25,1.52,1.67.7.42,1.44.61,2.2.57.77-.04,1.5-.3,2.2-.76.7-.46,1.31-1.11,1.81-1.94.5-.83.79-1.67.87-2.51.08-.84-.04-1.61-.36-2.31-.32-.7-.83-1.26-1.53-1.69Zm.76,3.93c-.09.64-.33,1.3-.73,1.97-.4.67-.87,1.19-1.39,1.56-.53.37-1.07.58-1.64.63s-1.11-.08-1.63-.39c-.52-.31-.89-.73-1.12-1.25s-.3-1.1-.22-1.75c.08-.65.32-1.3.73-1.97.4-.67.87-1.19,1.4-1.57.53-.38,1.08-.59,1.65-.64.57-.05,1.12.09,1.64.4.52.31.89.73,1.11,1.26.22.53.29,1.11.2,1.75Z"/><path d="m122.61,284.75c-.42-.64-1.02-1.12-1.78-1.43-.75-.3-1.5-.37-2.25-.2-.75.17-1.44.53-2.07,1.1s-1.12,1.3-1.49,2.2c-.36.9-.52,1.78-.46,2.62.06.84.3,1.58.73,2.22.43.64,1.01,1.11,1.76,1.41.76.31,1.51.38,2.27.22.75-.16,1.44-.53,2.06-1.09.62-.57,1.12-1.3,1.48-2.2.37-.9.52-1.77.47-2.61-.05-.84-.29-1.58-.72-2.22Zm-.83,4.4c-.29.73-.67,1.31-1.13,1.76-.46.45-.97.74-1.52.88-.55.14-1.11.09-1.67-.13-.56-.23-1-.58-1.3-1.06-.3-.48-.47-1.04-.49-1.69-.02-.65.11-1.34.41-2.06.29-.73.67-1.32,1.13-1.77.46-.46.97-.75,1.53-.89.56-.14,1.12-.09,1.68.14.56.23.99.58,1.29,1.07s.46,1.05.48,1.7c.02.65-.12,1.34-.42,2.06Z"/><path d="m133.23,294.94l1.03.25c.39-.36.83-.59,1.35-.71s1.02-.11,1.52,0c.52.12.97.35,1.34.68.37.33.62.73.77,1.2s.16.97.03,1.51c-.13.56-.38,1.02-.74,1.38s-.78.62-1.27.75c-.49.14-1.01.14-1.55.01-.63-.15-1.18-.45-1.63-.91-.45-.46-.77-.99-.95-1.59l-.87.38c.17.74.54,1.4,1.11,1.97.57.57,1.26.95,2.08,1.14.74.18,1.46.18,2.15,0,.69-.18,1.28-.51,1.79-1,.5-.49.85-1.12,1.03-1.89.17-.72.15-1.4-.05-2.04-.21-.64-.56-1.18-1.06-1.64-.5-.45-1.1-.76-1.81-.93-.48-.11-.95-.14-1.4-.06s-.86.23-1.22.46l1.8-3.99,4.79,1.14.25-1.03-5.62-1.34-2.86,6.25Z"/><polygon points="58.71 94.54 73.15 104.56 73.92 103.45 59.48 93.43 63.4 87.77 62.4 87.08 53.78 99.5 54.78 100.19 58.71 94.54"/><polygon points="86.8 87.95 80.79 81.25 89.62 73.33 95.63 80.03 96.63 79.13 84.08 65.14 83.08 66.04 88.81 72.43 79.98 80.35 74.25 73.96 73.25 74.86 85.8 88.85 86.8 87.95"/><polygon points="119.26 65.27 118.68 64.2 108.84 69.49 105.14 62.62 113.55 58.09 113 57.06 104.59 61.59 101.09 55.09 110.71 49.91 110.13 48.83 99.32 54.66 108.23 71.21 119.26 65.27"/><path d="m146.53,50.55c.55,1.09,1.27,2.04,2.16,2.85.89.82,1.9,1.44,3.03,1.87,1.13.43,2.33.57,3.59.44,2.4-.26,4.38-1.52,5.96-3.76l.32,2.94,1.16-.13-.99-9.08-5.39.59.12,1.08,4.24-.46.39,3.58c-.78,1.18-1.62,2.1-2.52,2.74-1.01.7-2.11,1.12-3.33,1.25-1.03.11-2.03,0-2.99-.34-.96-.34-1.82-.86-2.59-1.56-.77-.7-1.4-1.52-1.89-2.46-.49-.94-.8-1.96-.92-3.07-.11-1.04-.06-2.06.17-3.08.23-1.02.61-1.95,1.16-2.8.55-.85,1.24-1.56,2.09-2.12.84-.56,1.82-.9,2.92-1.02,1.32-.14,2.53,0,3.63.44,1.1.44,2.04,1.24,2.8,2.4l1.03-.78c-.73-1.13-1.71-2.01-2.94-2.65-1.23-.64-2.78-.86-4.64-.65-1.25.14-2.37.52-3.36,1.15-1,.63-1.83,1.43-2.51,2.4-.68.97-1.16,2.04-1.46,3.22-.3,1.18-.38,2.38-.25,3.61.13,1.18.47,2.31,1.02,3.39Z"/><path d="m177.58,52.41c.64,1,1.45,1.84,2.44,2.53.99.69,2.13,1.12,3.42,1.31,1.24.18,2.43.09,3.56-.27,1.13-.35,2.15-.92,3.08-1.68s1.68-1.68,2.28-2.75c.6-1.06.99-2.22,1.17-3.48.17-1.15.12-2.32-.14-3.5-.26-1.18-.71-2.28-1.34-3.3-.64-1.02-1.45-1.87-2.43-2.57-.98-.69-2.12-1.13-3.43-1.32-1.24-.18-2.43-.09-3.56.28s-2.16.93-3.08,1.7c-.92.77-1.68,1.68-2.28,2.75-.6,1.06-.99,2.22-1.16,3.46-.17,1.19-.13,2.38.13,3.56.26,1.19.71,2.28,1.35,3.28Zm-.14-6.65c.15-1.01.47-1.98.96-2.9.5-.92,1.12-1.72,1.87-2.42.75-.69,1.61-1.21,2.59-1.55.97-.34,2.02-.43,3.14-.27,1.05.15,1.99.52,2.82,1.1.83.58,1.53,1.31,2.08,2.17.55.86.94,1.81,1.16,2.84.22,1.03.25,2.08.1,3.14-.15,1.01-.46,1.98-.94,2.9-.48.92-1.1,1.73-1.86,2.42-.76.69-1.63,1.21-2.6,1.55-.98.34-2.01.43-3.11.27-1.08-.16-2.04-.52-2.88-1.11-.83-.58-1.52-1.31-2.07-2.17-.55-.86-.93-1.81-1.16-2.84-.23-1.03-.26-2.08-.11-3.14Z"/><path d="m208.46,54.99l5.64,2.3,1.54,8.29,1.45.59-1.58-8.53c.86.22,1.71.2,2.53-.06.82-.26,1.55-.69,2.2-1.3.65-.61,1.15-1.35,1.5-2.22.27-.67.41-1.38.42-2.12,0-.74-.11-1.46-.35-2.16-.24-.7-.6-1.33-1.09-1.89-.49-.56-1.11-.99-1.86-1.3l-7.23-2.95-7.09,17.41,1.25.51,2.68-6.57Zm3.96-9.71l5.93,2.42c.72.29,1.29.76,1.7,1.39.42.64.67,1.35.76,2.14.09.79-.02,1.56-.33,2.31-.3.74-.73,1.37-1.3,1.9-.57.53-1.21.89-1.94,1.07s-1.46.12-2.21-.19l-6.1-2.49,3.49-8.56Z"/><polygon points="239.17 60.2 237.44 74.75 238.16 75.3 251.68 69.64 241.94 82.55 243.01 83.37 254.33 68.36 253.26 67.55 238.9 73.57 240.75 58.11 239.67 57.3 228.35 72.3 229.43 73.12 239.17 60.2"/><path d="m252.28,92.81l6.45-1.82,5.63,7.13-3.27,5.85.89,1.12,9.83-17.88-.72-.91-19.71,5.37.9,1.14Zm17.88-5.04l-5.21,9.3-5.06-6.41,10.26-2.89Z"/><polygon points="268.59 116.52 283.45 109.88 273.84 128.29 274.38 129.5 291.55 121.83 291 120.6 275.89 127.35 285.65 108.64 285.2 107.62 268.04 115.29 268.59 116.52"/><path d="m299.16,163.44c-.54-1.05-1.26-1.96-2.16-2.72-.9-.76-1.93-1.34-3.07-1.75-1.15-.4-2.34-.6-3.57-.57-1.18.02-2.34.26-3.47.71s-2.14,1.08-3.04,1.89-1.61,1.76-2.14,2.84c-.53,1.08-.78,2.26-.76,3.53.04,2.41,1.12,4.5,3.2,6.27l-2.96.05.02,1.16,9.13-.16-.09-5.43-1.09.02.07,4.26-3.6.06c-1.1-.88-1.94-1.8-2.49-2.76-.61-1.07-.93-2.21-.95-3.43-.02-1.04.19-2.02.61-2.95.43-.93,1.02-1.74,1.79-2.44.76-.7,1.64-1.26,2.62-1.66.98-.41,2.03-.62,3.14-.64,1.04-.02,2.06.13,3.05.45.99.32,1.89.79,2.69,1.41.8.62,1.43,1.38,1.92,2.27.48.89.73,1.89.75,3.01.02,1.32-.23,2.51-.77,3.57-.54,1.06-1.42,1.92-2.64,2.57l.68,1.1c1.19-.62,2.16-1.52,2.91-2.68s1.11-2.69,1.07-4.56c-.02-1.25-.3-2.4-.84-3.45Z"/><path d="m279.3,189.56l6.92,1.57-1.35,5.94-7.93,2.87-.35,1.52,8.16-2.95c-.08.89.08,1.71.47,2.48s.93,1.42,1.64,1.96c.71.54,1.52.92,2.43,1.12.7.16,1.42.18,2.16.07.73-.11,1.42-.35,2.07-.7.65-.35,1.21-.81,1.69-1.38.47-.57.8-1.25.98-2.04l1.73-7.61-18.33-4.17-.3,1.32Zm17.14,3.9l-1.42,6.25c-.17.76-.54,1.39-1.1,1.91-.56.51-1.22.88-1.99,1.1-.76.21-1.54.23-2.33.05-.77-.18-1.47-.5-2.09-.98-.62-.47-1.07-1.05-1.37-1.74-.3-.68-.36-1.42-.18-2.21l1.46-6.43,9.01,2.05Z"/><path d="m284.17,218.74c-.82-.91-1.79-1.64-2.9-2.21-1.07-.54-2.21-.88-3.42-1.01s-2.39-.06-3.54.23c-1.15.29-2.21.79-3.18,1.51-.97.72-1.74,1.66-2.33,2.83-.56,1.12-.86,2.27-.88,3.45-.02,1.18.18,2.34.61,3.45.43,1.12,1.06,2.13,1.88,3.04s1.79,1.65,2.93,2.22c1.04.52,2.16.85,3.36.98,1.2.13,2.38.06,3.55-.22,1.17-.28,2.24-.77,3.21-1.48.97-.71,1.75-1.65,2.35-2.83.56-1.12.85-2.27.87-3.46.02-1.19-.19-2.34-.63-3.46s-1.06-2.13-1.88-3.04Zm.52,9.4c-.48.95-1.13,1.72-1.94,2.33-.82.6-1.73,1.03-2.72,1.28s-2.02.31-3.06.19c-1.05-.12-2.05-.43-3.01-.91-.91-.46-1.73-1.07-2.45-1.81-.72-.75-1.29-1.59-1.7-2.53-.41-.94-.63-1.93-.64-2.96s.23-2.05.73-3.04c.49-.98,1.15-1.77,1.97-2.37.82-.61,1.72-1.03,2.72-1.27.99-.24,2.01-.3,3.06-.19,1.05.11,2.06.41,3.02.9.91.46,1.73,1.07,2.44,1.84.71.76,1.28,1.61,1.7,2.55.42.93.63,1.91.65,2.95.01,1.03-.24,2.05-.75,3.06Z"/><path d="m261.97,242.47c-1.02-.55-2.07-.9-3.15-1.05-1.08-.15-2.15-.03-3.21.38-1.06.4-2.09,1.17-3.08,2.29-.96,1.08-1.57,2.17-1.84,3.25-.27,1.08-.28,2.14-.03,3.19.25,1.05.71,2.05,1.39,3.01.67.96,1.48,1.85,2.42,2.68l7.08,6.25.89-1.01-7.08-6.26c-.75-.67-1.43-1.4-2.03-2.2s-1.03-1.64-1.3-2.53c-.27-.88-.3-1.8-.1-2.74.2-.94.72-1.89,1.56-2.84.83-.94,1.69-1.57,2.59-1.9.9-.33,1.8-.41,2.71-.25.91.16,1.81.48,2.69.98s1.71,1.08,2.47,1.76l7.08,6.25.89-1.01-7.08-6.25c-.89-.78-1.84-1.45-2.86-2Z"/><path d="m235.84,259.85l4.06,5.82-5.36,3.74c-.88.61-1.48,1.38-1.81,2.29-.32.91-.41,1.86-.27,2.85.14.99.5,1.89,1.07,2.72.41.59.93,1.09,1.55,1.5s1.29.7,2.01.87,1.45.21,2.19.1,1.43-.38,2.08-.84l6.34-4.42-10.75-15.42-1.11.77Zm10.05,14.42l-5.19,3.62c-.62.43-1.31.66-2.07.67-.76.01-1.49-.16-2.2-.52s-1.3-.87-1.78-1.55c-.45-.65-.75-1.36-.9-2.12s-.1-1.49.14-2.2.7-1.3,1.38-1.77l5.32-3.71,5.28,7.58Z"/></g></svg>